<svg xmlns="http://www.w3.org/2000/svg" viewBox="0 0 292 76" width="292" height="76" role="img" aria-label="TidTam ติดตาม">
  <!--
    โลโก้เต็มชุด (เครื่องหมาย + ชื่อ + คำไทย)
    ⚠️ ไฟล์นี้ถูกสร้างจากสคริปต์ scripts/make-brand.js — ห้ามแก้ด้วยมือ (รันใหม่แล้วทับทันที)
    ⚠️ เป็นเครื่องหมายของ "แอป" เท่านั้น ไม่ใช่โลโก้บริษัท (โลโก้บริษัทตั้งจากหน้า "ตั้งค่าองค์กร")
  -->
  <g transform="translate(0 6)">
  <rect x="57.55" y="29.11" width="5.2" height="5.78" rx="1.6" fill="#dc2626" transform="rotate(-75.0 32 32)"/>
  <rect x="57.55" y="29.11" width="5.2" height="5.78" rx="1.6" fill="#dc2626" transform="rotate(-45.0 32 32)"/>
  <rect x="57.55" y="29.11" width="5.2" height="5.78" rx="1.6" fill="#dc2626" transform="rotate(-15.0 32 32)"/>
  <rect x="57.55" y="29.11" width="5.2" height="5.78" rx="1.6" fill="#dc2626" transform="rotate(15.0 32 32)"/>
  <rect x="57.55" y="29.11" width="5.2" height="5.78" rx="1.6" fill="#0f172a" transform="rotate(45.0 32 32)"/>
  <rect x="57.55" y="29.11" width="5.2" height="5.78" rx="1.6" fill="#0f172a" transform="rotate(75.0 32 32)"/>
  <rect x="57.55" y="29.11" width="5.2" height="5.78" rx="1.6" fill="#0f172a" transform="rotate(105.0 32 32)"/>
  <rect x="57.55" y="29.11" width="5.2" height="5.78" rx="1.6" fill="#0f172a" transform="rotate(135.0 32 32)"/>
  <rect x="57.55" y="29.11" width="5.2" height="5.78" rx="1.6" fill="#0f172a" transform="rotate(165.0 32 32)"/>
  <rect x="57.55" y="29.11" width="5.2" height="5.78" rx="1.6" fill="#0f172a" transform="rotate(195.0 32 32)"/>
  <rect x="57.55" y="29.11" width="5.2" height="5.78" rx="1.6" fill="#0f172a" transform="rotate(225.0 32 32)"/>
  <rect x="57.55" y="29.11" width="5.2" height="5.78" rx="1.6" fill="#0f172a" transform="rotate(255.0 32 32)"/>
  <circle cx="32" cy="32" r="24" fill="none" stroke="#0f172a" stroke-width="5.5"/>
  <path d="M32 8 A24 24 0 0 1 52.78 44" fill="none" stroke="#dc2626" stroke-width="5.5"/>
  <circle cx="32" cy="32" r="14" fill="#0f172a"/>
  <path d="M25.5 32 L30 36.5 L38.8 27" fill="none" stroke="#ffffff" stroke-width="4.6" stroke-linecap="round" stroke-linejoin="round"/></g>
  <text x="78" y="43" font-family="'Poppins', system-ui, sans-serif" font-size="40" font-weight="800" letter-spacing="-1">
    <tspan fill="currentColor">Tid</tspan><tspan fill="#dc2626">Tam</tspan>
  </text>
  <text x="80" y="63" font-family="'IBM Plex Sans Thai', system-ui, sans-serif" font-size="14" font-weight="600" letter-spacing="4.6" fill="#64748b">ติดตาม</text>
</svg>